<svg aria-hidden="true" style="position: absolute; width: 0; height: 0; overflow: hidden;" version="1.1" xmlns="http://www.w3.org/2000/svg" xmlns:xlink="http://www.w3.org/1999/xlink">
<defs>
<symbol id="icon-instagram" viewBox="0 0 32 32">
<path d="M21.179 4h-11.692c-1.808 0.002-3.542 0.721-4.821 2s-1.998 3.012-2 4.821v11.692c0.002 1.808 0.721 3.542 2 4.821s3.012 1.998 4.821 2h11.692c1.808-0.002 3.542-0.721 4.821-2s1.998-3.012 2-4.821v-11.692c-0.002-1.808-0.721-3.542-2-4.821s-3.012-1.998-4.821-2zM15.333 22.513c-1.156 0-2.287-0.343-3.248-0.985s-1.711-1.555-2.153-2.624c-0.442-1.068-0.558-2.244-0.333-3.378s0.782-2.176 1.6-2.993c0.818-0.818 1.859-1.374 2.993-1.6s2.309-0.11 3.378 0.333 1.981 1.192 2.624 2.153c0.642 0.961 0.985 2.092 0.985 3.248-0.002 1.55-0.618 3.036-1.714 4.132s-2.582 1.712-4.132 1.714zM22.641 10.82c-0.289 0-0.572-0.086-0.812-0.246s-0.428-0.389-0.538-0.656c-0.111-0.267-0.14-0.561-0.083-0.844s0.196-0.544 0.4-0.748c0.204-0.204 0.465-0.344 0.748-0.4s0.577-0.027 0.844 0.083c0.267 0.111 0.495 0.298 0.656 0.538s0.246 0.523 0.246 0.812c0 0.388-0.154 0.759-0.428 1.033s-0.646 0.428-1.033 0.428zM19.231 16.667c0 0.771-0.229 1.524-0.657 2.165s-1.037 1.14-1.749 1.435c-0.712 0.295-1.496 0.372-2.252 0.222s-1.45-0.522-1.995-1.067-0.916-1.239-1.067-1.995c-0.15-0.756-0.073-1.54 0.222-2.252s0.795-1.321 1.435-1.749c0.641-0.428 1.395-0.657 2.165-0.657 1.034 0 2.025 0.411 2.756 1.142s1.142 1.722 1.142 2.756z"></path>
</symbol>
<symbol id="icon-facebook" viewBox="0 0 32 32">
<path d="M29.333 16.033c0-7.378-5.973-13.367-13.333-13.367s-13.333 5.988-13.333 13.367c0 6.469 4.587 11.856 10.667 13.099v-9.089h-2.667v-4.010h2.667v-3.342c0-2.58 2.093-4.678 4.667-4.678h3.333v4.010h-2.667c-0.733 0-1.333 0.601-1.333 1.337v2.673h4v4.010h-4v9.29c6.733-0.668 12-6.363 12-13.3z"></path>
</symbol>
<symbol id="icon-youtube" viewBox="0 0 32 32">
<path d="M18.226 15.768l-3.119-1.455c-0.272-0.126-0.496 0.015-0.496 0.317v2.742c0 0.301 0.224 0.443 0.496 0.317l3.118-1.455c0.274-0.128 0.274-0.336 0.001-0.464zM16 2.667c-7.364 0-13.333 5.969-13.333 13.333s5.969 13.333 13.333 13.333c7.364 0 13.333-5.969 13.333-13.333s-5.969-13.333-13.333-13.333zM16 21.417c-6.825 0-6.944-0.615-6.944-5.417s0.119-5.417 6.944-5.417c6.825 0 6.944 0.615 6.944 5.417s-0.119 5.417-6.944 5.417z"></path>
</symbol>
<symbol id="icon-linkedin" viewBox="0 0 32 32">
<path fill="currentColor" d="M7 12h4.4v13h-4.4v-13zM9.2 5.5c-1.436 0-2.6 1.164-2.6 2.6s1.164 2.6 2.6 2.6 2.6-1.164 2.6-2.6-1.164-2.6-2.6-2.6zM14.2 12h4.217v1.777h0.06c0.587-1.113 2.023-2.287 4.163-2.287 4.45 0 5.273 2.93 5.273 6.74v6.77h-4.397v-6c0-1.43-0.027-3.27-1.993-3.27-1.997 0-2.303 1.557-2.303 3.167v6.103h-4.4v-13z"></path>
</symbol>
<symbol id="icon-github" viewBox="0 0 32 32">
<path d="M16 2.667c-7.365 0-13.333 5.968-13.333 13.333 0 5.891 3.819 10.891 9.115 12.653 0.667 0.123 0.911-0.289 0.911-0.643 0-0.317-0.012-1.156-0.018-2.269-3.707 0.805-4.489-1.787-4.489-1.787-0.606-1.539-1.48-1.949-1.48-1.949-1.209-0.826 0.092-0.809 0.092-0.809 1.336 0.094 2.039 1.372 2.039 1.372 1.187 2.035 3.115 1.447 3.873 1.107 0.121-0.86 0.465-1.447 0.847-1.78-2.959-0.337-6.071-1.48-6.071-6.588 0-1.456 0.521-2.647 1.373-3.58-0.138-0.337-0.595-1.696 0.13-3.535 0 0 1.12-0.358 3.667 1.368 1.063-0.295 2.203-0.443 3.336-0.448 1.132 0.005 2.272 0.153 3.336 0.448 2.545-1.726 3.664-1.368 3.664-1.368 0.727 1.839 0.27 3.198 0.133 3.535 0.855 0.933 1.371 2.124 1.371 3.58 0 5.12-3.117 6.248-6.084 6.579 0.478 0.412 0.905 1.227 0.905 2.472 0 1.785-0.016 3.225-0.016 3.663 0 0.357 0.24 0.772 0.917 0.641 5.291-1.765 9.107-6.763 9.107-12.651 0-7.365-5.968-13.333-13.333-13.333z"></path>
</symbol>
<symbol id="icon-mail" viewBox="0 0 32 32">
<path d="M4 6.667c-1.105 0-2 0.895-2 2v14.667c0 1.105 0.895 2 2 2h24c1.105 0 2-0.895 2-2v-14.667c0-1.105-0.895-2-2-2h-24zM5.333 10h21.333l-10.667 8-10.667-8zM4.667 12.007l8.932 6.699c1.423 1.067 3.379 1.067 4.802 0l8.932-6.699v10.66h-22.667v-10.66z"></path>
</symbol>
<symbol id="icon-menu" viewBox="0 0 32 32">
<path d="M2.571 12c0 0.789 0.64 1.429 1.429 1.429h24c0.789 0 1.429-0.64 1.429-1.429s-0.64-1.429-1.429-1.429h-24c-0.789 0-1.429 0.64-1.429 1.429zM2.571 20c0 0.789 0.64 1.429 1.429 1.429h24c0.789 0 1.429-0.64 1.429-1.429s-0.64-1.429-1.429-1.429h-24c-0.789 0-1.429 0.64-1.429 1.429z"></path>
</symbol>
<symbol id="icon-close" viewBox="0 0 32 32">
<path d="M25.143 8.983l-2.126-2.126-7.016 7.016-7.016-7.016-2.126 2.126 7.016 7.017-7.016 7.016 2.126 2.126 7.017-7.016 7.016 7.016 2.126-2.126-7.016-7.016 7.016-7.017z"></path>
</symbol>
</defs>
</svg>
